<?xml version="1.0" encoding="utf-8"?>
<svg viewBox="0 0 24 24" fill="none" xmlns="http://www.w3.org/2000/svg">
  <path d="M 13.526 19.026 L 13.533 19.026 M 16.132 19.026 L 16.139 19.026 M 18.738 19.026 L 18.744 19.026 M 21.996 23.002 L 19.83 22.268 C 19.666 22.212 19.584 22.184 19.499 22.165 C 19.421 22.148 19.343 22.134 19.263 22.127 C 19.172 22.118 19.081 22.118 18.898 22.118 L 12.353 22.118 C 11.623 22.118 11.258 22.118 10.98 22.022 C 10.734 21.938 10.535 21.803 10.41 21.637 C 10.268 21.447 10.268 21.2 10.268 20.705 L 10.268 17.348 C 10.268 16.854 10.268 16.607 10.41 16.418 C 10.535 16.252 10.734 16.116 10.98 16.032 C 11.258 15.935 11.623 15.935 12.353 15.935 L 19.911 15.935 C 20.641 15.935 21.006 15.935 21.285 16.032 C 21.528 16.116 21.729 16.252 21.854 16.418 C 21.996 16.607 21.996 16.854 21.996 17.348 L 21.996 23.002 Z" stroke="#000000" stroke-width="2" stroke-linecap="round" stroke-linejoin="round" style=""/>
  <path d="M 5.172 10.249 L 12.957 10.249 M 5.172 7.387 L 9.064 7.387 M 16.072 2.379 L 13.483 3.568 C 13.286 3.657 13.188 3.703 13.086 3.735 C 12.994 3.763 12.901 3.783 12.806 3.796 C 12.698 3.809 12.591 3.809 12.369 3.809 L 4.55 3.809 C 3.678 3.809 3.242 3.809 2.909 3.965 C 2.615 4.102 2.378 4.322 2.227 4.592 C 2.057 4.898 2.057 5.298 2.057 6.1 L 2.057 11.537 C 2.057 12.338 2.057 12.739 2.227 13.046 C 2.378 13.314 2.615 13.532 2.909 13.67 C 3.242 13.827 3.678 13.827 4.55 13.827 L 13.579 13.827 C 14.454 13.827 14.889 13.827 15.221 13.67 C 15.513 13.532 15.752 13.314 15.9 13.046 C 16.072 12.739 16.072 12.338 16.072 11.537 L 16.072 2.379 Z" stroke="#000000" stroke-width="2" stroke-linecap="round" stroke-linejoin="round" style="transform-origin: 9.0645px 8.103px;" transform="matrix(-1, 0, 0, -1, 0, 0.000001907349)"/>
</svg>